PathFileType	4	(X/Y/Z)	Patient4_TMGait_0pt5_01_left_29.trc.trc
DataRate	CameraRate	NumFrames	NumMarkers	Units	OrigDataRate	OrigDataStartFrame	OrigNumFrames
75.268817204301	75.268817204301	4	33	mm	75.268817204301	1	       141
Frame#	Time	L.ASIS			Sacral			L.Shoulder			Chest			R.Shoulder			Neck			R.ASIS			R.Thigh.Superior			R.Thigh.Lateral			R.Thigh.Inferior			R.Patella			L.Thigh.Superior			L.Thigh.Lateral			L.Thigh.Inferior			L.Patella			L.Shank.Superior			L.Shank.Lateral			L.Shank.Inferior			R.Shank.Superior			R.Shank.Lateral			R.Shank.Inferior			R.Heel			R.Midfoot.Superior			R.Midfoot.Lateral			R.Toe			L.Heel			L.Midfoot.Lateral			L.Midfoot.Superior			L.Toe			L.Elbow			L.Wrist			R.Elbow			R.Wrist			
		X1	Y1	Z1	X2	Y2	Z2	X3	Y3	Z3	X4	Y4	Z4	X5	Y5	Z5	X6	Y6	Z6	X7	Y7	Z7	X8	Y8	Z8	X9	Y9	Z9	X10	Y10	Z10	X11	Y11	Z11	X12	Y12	Z12	X13	Y13	Z13	X14	Y14	Z14	X15	Y15	Z15	X16	Y16	Z16	X17	Y17	Z17	X18	Y18	Z18	X19	Y19	Z19	X20	Y20	Z20	X21	Y21	Z21	X22	Y22	Z22	X23	Y23	Z23	X24	Y24	Z24	X25	Y25	Z25	X26	Y26	Z26	X27	Y27	Z27	X28	Y28	Z28	X29	Y29	Z29	X30	Y30	Z30	X31	Y31	Z31	X32	Y32	Z32	X33	Y33	Z33	

1	38.710000000000	875.700459555840	968.081833270598	365.586813167258	673.328397285804	1006.929976849745	538.056252861163	841.557906065790	1445.117197039471	367.788070446680	957.828445117464	1363.851378932790	514.600558318294	890.469677866952	1430.975484390945	699.447439372189	859.624164374456	1496.898236661724	520.301172674544	908.300444411165	941.112366566850	637.162788323831	948.444575163855	742.139655128410	604.648874058515	871.334798216822	632.238587849931	662.954423633193	947.176802743411	582.815060206708	579.746020511263	948.270798177679	493.619913151113	584.522067579939	959.962754578696	781.961205575039	388.290505369328	909.041575510287	655.704629031106	314.202030358820	1012.606208694363	591.985646803178	370.063284216392	1028.173822906521	507.534868381196	362.510347763683	977.215656503741	434.985150723127	355.636784028217	850.007347003968	357.104299512269	312.254810139727	876.194968301200	228.200521886326	364.562254652728	919.959627786788	404.891513712586	590.082129951121	848.065315517703	299.008592616024	646.277870472909	892.990049084562	206.720839668897	581.821774574228	759.202462652847	42.636178429322	540.898357912600	928.494175554754	96.995154033540	584.658125649658	839.656597848294	36.283645488762	620.007449685124	1047.610175471037	46.764916264865	617.881325183769	714.122551554127	105.257256834273	409.952852357793	774.784663693195	90.678206223935	320.748912250559	873.870953606857	128.381368329202	336.950364196007	979.153969208841	51.362396597688	288.898931273686	738.969718897943	1113.897367936167	235.660779042761	874.440399749212	889.210442408974	213.566468788314	933.760683046951	1084.957058106399	810.325192030162	1110.230717491564	895.028930588664	785.200314283109	
2	38.723285714286	873.610978217686	968.336463327253	366.050707414399	672.201471237015	1007.415585986828	539.672949267699	840.141934252180	1445.348150175455	368.988906481289	957.143192818689	1363.698068526795	514.976723903539	891.158620577488	1430.813751640832	700.289038146555	859.164926916834	1496.972167560869	521.470915053313	907.352618319715	940.997191223919	637.436904964046	945.603170061689	741.605517720599	604.370232670494	868.082202073005	632.177427773231	663.506116820092	942.867555575952	582.197595220387	579.850239294031	943.164168757217	493.067058727357	584.747112431665	957.584523953130	782.188300260415	389.256835439617	906.795057449880	656.223074724246	314.511672682868	1009.543627772446	592.377346763819	371.608553139078	1026.865548475613	510.225209740429	363.410295195047	980.174660167374	437.394365110242	355.275590925504	859.324720263077	352.337795784085	310.888515440530	894.023889292588	225.719672521082	362.316625764727	914.790308626982	404.633729301780	590.394975553736	842.345409346222	298.895836990342	646.493763126514	886.691372623182	206.489294147745	581.841260027324	752.213786097767	42.712711881811	540.947055812148	921.582617928329	96.978520233093	584.754638085227	832.645317246711	36.306943303375	620.045627646495	1040.601027565865	46.413509450261	617.974337377613	741.646027119054	93.006282299699	406.761217582018	802.991764821110	82.698783862971	317.715984125107	898.704784894665	126.508290455209	334.279405846873	1008.146159357599	56.997426135948	286.417887054593	735.927373724215	1114.519522371782	237.120413741132	869.969957368764	889.183778102055	213.241119902786	937.470397830306	1085.817691705515	811.979408199883	1116.638316093151	898.893971223316	785.390294965103	
3	38.736571428571	871.534595525752	968.553492009392	366.485813922710	671.100113355147	1007.875201264434	541.251382344455	838.756250652077	1445.571903168150	370.156135024191	956.460495048700	1363.534900666741	515.339976935660	891.801571602677	1430.627502111277	701.104939627570	858.709527427332	1497.033745203196	522.610006442134	906.435924176957	940.890666072089	637.693100221321	942.820753896354	741.070431390613	604.123272085062	864.857633837070	632.109949152969	664.038622846617	938.609000374060	581.578489320074	579.961392321351	938.112071009602	492.514840610045	584.963165876285	955.072857646654	782.289042374231	390.169328298715	904.443382209037	656.684603452569	314.709417739944	1006.377568003413	592.685048972920	373.042329132825	1025.414483610444	512.831681576367	364.255707969856	982.965891492702	439.804470014929	354.938033596258	868.611943835914	347.706602602892	309.465531236696	911.651742613976	223.515746205339	360.177414538640	909.654552287700	404.363819598510	590.687643138256	836.669860198639	298.785274243285	646.700252570005	880.432262235105	206.253441185197	581.858484653653	745.265598015650	42.788645790466	540.995272675946	914.691889252879	96.936872141576	584.808836181146	825.674007817885	36.329800318873	620.079587792067	1033.634316326653	46.066644237863	618.064347994586	768.956565031343	81.309418731478	403.579179432043	831.109271936756	75.133348048380	314.826438598227	923.370390590187	124.937781402601	331.821303780070	1036.904816721625	62.853632784006	284.472502458775	732.948890144276	1115.135699610503	238.525270887013	865.525566176599	889.130185128565	212.900859598093	941.073523953389	1086.632721266785	813.570487932416	1122.879728824068	902.662461558549	785.561387429696	
4	38.749857142857	869.494178474189	968.705312117820	366.860074914091	670.042789275493	1008.285950086063	542.743971720531	837.427519386951	1445.781319561960	371.249202514947	955.780339081287	1363.355087519660	515.672042608988	892.353185041089	1430.399724340094	701.864051569468	858.257768246007	1497.072977888850	523.680470448955	905.571270844540	940.798672872488	637.908849901309	940.146144344950	740.536640173873	603.921772193008	861.688409665012	632.032603046143	664.531355372983	934.449461126373	580.958386609016	580.079376899958	933.167735710762	491.964590976922	585.160121965633	952.372137288592	782.187685279703	390.967084518799	901.930744366635	657.039073931328	314.724224233697	1003.077893783498	592.852008407205	374.265005431861	1023.748741341120	515.281817906071	364.996018438440	985.450175251930	442.198322935467	354.638696318341	877.751508928252	343.360475695539	307.973439339502	928.762829912497	221.816629399047	358.240352910671	904.586355773143	404.072838986674	590.940193393860	831.081341475994	298.681606890116	646.886705347135	874.253198456543	206.011639143724	581.870175968903	738.399176360003	42.863980928362	541.043796339382	907.851486058813	96.855688278617	584.796604916348	818.783364186256	36.352631378280	620.107020672453	1026.752076509025	45.729300119400	618.148842004549	795.634971103934	70.695004646068	400.477541359263	858.774750183074	68.364807342077	312.222223964269	947.499547780546	123.906924906705	329.741925025692	1064.963951731698	69.024140291005	283.409595084296	730.096366802247	1115.738316789844	239.815511895523	861.146075858534	889.029582648850	212.526576675726	944.441850574587	1087.356118710904	815.027409041306	1128.757143925420	906.220372881332	785.690574615725	
